<?xml version="1.0" encoding="UTF-8" standalone="no"?>
<!-- Generator: Adobe Illustrator 19.0.0, SVG Export Plug-In . SVG Version: 6.00 Build 0)  -->

<svg
   xmlns:dc="http://purl.org/dc/elements/1.1/"
   xmlns:cc="http://creativecommons.org/ns#"
   xmlns:rdf="http://www.w3.org/1999/02/22-rdf-syntax-ns#"
   xmlns:svg="http://www.w3.org/2000/svg"
   xmlns="http://www.w3.org/2000/svg"
   xmlns:sodipodi="http://sodipodi.sourceforge.net/DTD/sodipodi-0.dtd"
   xmlns:inkscape="http://www.inkscape.org/namespaces/inkscape"
   version="1.1"
   id="Capa_1"
   x="0px"
   y="0px"
   viewBox="0 0 47.28258 38.295541"
   xml:space="preserve"
   sodipodi:docname="both.svg"
   inkscape:version="0.92.4 (33fec40, 2019-01-16)"
   width="47.282578"
   height="38.29554"><metadata
   id="metadata71"><rdf:RDF><cc:Work
       rdf:about=""><dc:format>image/svg+xml</dc:format><dc:type
         rdf:resource="http://purl.org/dc/dcmitype/StillImage" /><dc:title></dc:title></cc:Work></rdf:RDF></metadata><defs
   id="defs69" /><sodipodi:namedview
   pagecolor="#ffffff"
   bordercolor="#666666"
   borderopacity="1"
   objecttolerance="10"
   gridtolerance="10"
   guidetolerance="10"
   inkscape:pageopacity="0"
   inkscape:pageshadow="2"
   inkscape:window-width="1920"
   inkscape:window-height="971"
   id="namedview67"
   showgrid="false"
   inkscape:zoom="0.65186282"
   inkscape:cx="-106.00941"
   inkscape:cy="203.48476"
   inkscape:window-x="0"
   inkscape:window-y="27"
   inkscape:window-maximized="1"
   inkscape:current-layer="Capa_1" />
<path
   inkscape:connector-curvature="0"
   id="path977"
   d="M 12.21968,0.80853434 C 11.416178,0.11052807 9.5082268,-1.0114283 9.1959159,1.8944365 8.0745379,9.4099664 0,14.662341 0,22.07226 c 0,6.246112 5.0635265,11.309639 11.309756,11.309639 6.246112,0 11.309638,-5.063527 11.309638,-11.309639 C 22.619313,16.405093 20.344645,7.8667248 12.21968,0.80853434 Z M 6.8862714,28.07075 c -0.175167,0.234408 -0.4433122,0.358451 -0.7145838,0.358451 -0.1836305,0 -0.3687681,-0.05669 -0.5279389,-0.174472 -0.099466,-0.07373 -2.4433081,-1.843149 -2.9485243,-5.187571 -0.5051013,-3.343726 1.7592143,-6.477275 1.8558977,-6.609084 0.2909827,-0.396824 0.8488286,-0.48296 1.2460011,-0.191515 0.3964766,0.29098 0.4824934,0.847902 0.1923239,1.244955 -0.02933,0.04046 -1.9242964,2.688847 -1.5312982,5.289472 0.391606,2.59309 2.2311605,4.009273 2.2497094,4.023301 0.3916056,0.295848 0.4722928,0.853582 0.1784131,1.246463 z"
   style="fill:#62a5a2;stroke-width:0.11592852" /><path
   inkscape:connector-curvature="0"
   id="path979"
   d="M 6.7079729,26.824287 C 6.689433,26.810252 4.8498699,25.394076 4.4582638,22.800986 4.0652656,20.200361 5.9602341,17.551975 5.9895643,17.511514 6.2797337,17.114461 6.1937144,16.557539 5.7972379,16.266559 5.4000678,15.975231 4.8422197,16.06125 4.5512392,16.458074 c -0.096686,0.131809 -2.3610012,3.265358 -1.8558999,6.609084 0.5051013,3.344422 2.8489435,5.113841 2.9485261,5.187571 0.1591712,0.117782 0.3443064,0.174472 0.5279369,0.174472 0.2712741,0 0.5394167,-0.123928 0.7145837,-0.358452 0.2937651,-0.39288 0.2130779,-0.950614 -0.1784131,-1.246462 z"
   style="fill:#f7f1e6;stroke-width:0.11592852" /><path
   style="fill:#a67e74;stroke-width:0.08189677"
   d="m 33.935165,15.401137 -4.055692,-2.116706 2.118587,-2.820278 c 0.38426,-0.5115282 1.082266,-0.6695887 1.649402,-0.373614 l 0.753204,0.393104 c 0.567134,0.295975 0.836574,0.959094 0.636747,1.566769 z"
   id="path2"
   inkscape:connector-curvature="0" />
<path
   style="fill:#fada6d;stroke-width:0.08189677"
   d="m 5.4447546,32.340417 v 0 c 1.4854423,3.603622 4.9981604,5.955042 8.8958724,5.955042 h 3.531879 c 2.717335,0 5.283489,-1.250646 6.957786,-3.390854 v 0 c 0.496787,-0.635027 1.446132,-0.668442 1.986405,-0.06994 v 0 c 1.988782,2.203349 4.817906,3.460874 7.78609,3.460874 h 1.392572 c 4.494084,0 8.677535,-2.292782 11.095455,-6.080999 v 0 c 0.630687,-0.988083 -0.406944,-2.192458 -1.477499,-1.715 l -2.59244,1.156301 C 42.119847,32.057708 41.14429,32.2654 40.157764,32.2654 v 0 c -3.451213,0 -6.39188,-2.505795 -6.939523,-5.913274 v 0 c -0.194424,-1.209862 -0.05323,-2.449778 0.408255,-3.584951 l 1.077843,-2.651162 c 1.409852,-3.467835 -1.251138,-7.228454 -4.990461,-7.052948 v 0 c -1.72794,0.08108 -3.298557,1.028048 -4.1769,2.518324 l -7.816391,13.261545 c -1.275295,2.163793 -3.59969,3.491831 -6.11138,3.491831 v 0 c -1.205604,0 -2.3912239,-0.307196 -3.4450702,-0.892756 L 7.1112703,30.857102 C 6.1335878,30.313964 5.018563,31.306553 5.4447546,32.340417 Z"
   id="path4"
   inkscape:connector-curvature="0" />
<path
   style="fill:#f2c55a;stroke-width:0.08189677"
   d="m 26.816616,34.834582 v 0 c 1.988782,2.203351 4.817987,3.460877 7.78609,3.460877 h 1.392573 c 3.826297,0 7.426643,-1.662997 9.904676,-4.494987 -20.005333,7.763977 -22.69859,-10.138409 -20.030556,-18.712919 -0.119242,0.157242 -0.230951,0.321362 -0.332502,0.493673 L 17.720506,28.84277 c -1.275297,2.163794 -3.59969,3.491833 -6.111383,3.491833 v 0 c -1.205601,0 -2.3912212,-0.307195 -3.4450694,-0.892758 L 7.1111895,30.85694 C 6.1336691,30.313881 5.018563,31.30647 5.4447546,32.340334 v 0 c 1.4854423,3.603624 4.9981604,5.955042 8.8958724,5.955042 h 3.531879 c 2.717335,0 5.283489,-1.250644 6.957786,-3.390854 v 0 c 0.496703,-0.635026 1.446132,-0.66844 1.986324,-0.06994 z"
   id="path6"
   inkscape:connector-curvature="0" />
<g
   id="g14"
   transform="matrix(0.08189676,0,0,0.08189676,5.3513103,3.1532284)">
	<path
   style="fill:#ebac40"
   d="m 248.996,364.304 c -4.142,0 -7.5,-3.358 -7.5,-7.5 0,-20.924 6.167,-70.162 29.28,-121.977 1.689,-3.783 6.123,-5.481 9.905,-3.794 3.782,1.688 5.481,6.122 3.794,9.905 -22.086,49.513 -27.979,96.128 -27.979,115.867 0,4.141 -3.358,7.499 -7.5,7.499 z"
   id="path8"
   inkscape:connector-curvature="0" />
	<path
   style="fill:#ebac40"
   d="m 137.493,429.104 c 2.508,-3.422 4.222,-7.792 5.257,-13.08 2.921,-14.93 -7.79,-26.614 -26.289,-25.64 -18.499,0.974 -21.745,6.816 -28.236,13.307 -3.816,3.816 -4.821,15.259 2.519,23.849 6.223,1.02 12.576,1.564 19.021,1.564 z"
   id="path10"
   inkscape:connector-curvature="0" />
	<path
   style="fill:#ebac40"
   d="m 388.519,349.521 c 0.204,-0.678 0.366,-1.326 0.508,-1.961 -11.134,-5.148 -21.014,-12.621 -28.99,-21.855 -14.976,-2.029 -27.561,3.361 -22.722,16.904 4.653,13.024 -4.806,23.42 23.932,21.958 15.701,-0.798 22.672,0.205 27.272,-15.046 z"
   id="path12"
   inkscape:connector-curvature="0" />
</g>


<g
   id="g34"
   transform="matrix(0.08189676,0,0,0.08189676,5.3513103,3.1532284)">
	<path
   style="fill:#ebac40"
   d="m 198.872,304.843 c -1.919,0 -3.839,-0.733 -5.303,-2.197 -2.929,-2.929 -2.929,-7.678 0,-10.607 l 10.391,-10.391 c 2.929,-2.929 7.678,-2.929 10.606,0 2.929,2.929 2.929,7.678 0,10.607 l -10.391,10.391 c -1.465,1.465 -3.384,2.197 -5.303,2.197 z"
   id="path30"
   inkscape:connector-curvature="0" />
	<path
   style="fill:#ebac40"
   d="m 193.991,336.956 c -1.919,0 -3.839,-0.732 -5.303,-2.197 -2.929,-2.929 -2.929,-7.678 0,-10.607 l 10.077,-10.077 c 2.929,-2.929 7.678,-2.929 10.606,0 2.929,2.929 2.929,7.678 0,10.606 l -10.077,10.077 c -1.464,1.465 -3.384,2.198 -5.303,2.198 z"
   id="path32"
   inkscape:connector-curvature="0" />
</g>
<g
   id="g36"
   transform="translate(-351.19811,-260.64022)">
</g>
<g
   id="g38"
   transform="translate(-351.19811,-260.64022)">
</g>
<g
   id="g40"
   transform="translate(-351.19811,-260.64022)">
</g>
<g
   id="g42"
   transform="translate(-351.19811,-260.64022)">
</g>
<g
   id="g44"
   transform="translate(-351.19811,-260.64022)">
</g>
<g
   id="g46"
   transform="translate(-351.19811,-260.64022)">
</g>
<g
   id="g48"
   transform="translate(-351.19811,-260.64022)">
</g>
<g
   id="g50"
   transform="translate(-351.19811,-260.64022)">
</g>
<g
   id="g52"
   transform="translate(-351.19811,-260.64022)">
</g>
<g
   id="g54"
   transform="translate(-351.19811,-260.64022)">
</g>
<g
   id="g56"
   transform="translate(-351.19811,-260.64022)">
</g>
<g
   id="g58"
   transform="translate(-351.19811,-260.64022)">
</g>
<g
   id="g60"
   transform="translate(-351.19811,-260.64022)">
</g>
<g
   id="g62"
   transform="translate(-351.19811,-260.64022)">
</g>
<g
   id="g64"
   transform="translate(-351.19811,-260.64022)">
</g>
</svg>