<?xml version="1.0" encoding="UTF-8" standalone="no"?>
<!-- Generator: Adobe Illustrator 19.0.0, SVG Export Plug-In . SVG Version: 6.00 Build 0)  -->

<svg
   xmlns:dc="http://purl.org/dc/elements/1.1/"
   xmlns:cc="http://creativecommons.org/ns#"
   xmlns:rdf="http://www.w3.org/1999/02/22-rdf-syntax-ns#"
   xmlns:svg="http://www.w3.org/2000/svg"
   xmlns="http://www.w3.org/2000/svg"
   xmlns:sodipodi="http://sodipodi.sourceforge.net/DTD/sodipodi-0.dtd"
   xmlns:inkscape="http://www.inkscape.org/namespaces/inkscape"
   version="1.1"
   id="Capa_1"
   x="0px"
   y="0px"
   viewBox="0 0 42.577304 28.790246"
   xml:space="preserve"
   sodipodi:docname="fertilize.svg"
   inkscape:version="0.92.4 (33fec40, 2019-01-16)"
   width="42.577301"
   height="28.790245"><metadata
   id="metadata71"><rdf:RDF><cc:Work
       rdf:about=""><dc:format>image/svg+xml</dc:format><dc:type
         rdf:resource="http://purl.org/dc/dcmitype/StillImage" /></cc:Work></rdf:RDF></metadata><defs
   id="defs69" /><sodipodi:namedview
   pagecolor="#ffffff"
   bordercolor="#666666"
   borderopacity="1"
   objecttolerance="10"
   gridtolerance="10"
   guidetolerance="10"
   inkscape:pageopacity="0"
   inkscape:pageshadow="2"
   inkscape:window-width="1920"
   inkscape:window-height="971"
   id="namedview67"
   showgrid="false"
   inkscape:zoom="0.65186282"
   inkscape:cx="-9.4663965"
   inkscape:cy="16.235338"
   inkscape:window-x="0"
   inkscape:window-y="27"
   inkscape:window-maximized="1"
   inkscape:current-layer="Capa_1" />
<path
   style="fill:#a67e74;stroke-width:0.08315859"
   d="M 29.024237,5.5430954 24.906058,3.3937783 27.057287,0.53004582 c 0.39018,-0.51940861 1.09894,-0.67990463 1.674814,-0.37936967 l 0.76481,0.39916135 c 0.575873,0.30053494 0.849464,0.9738701 0.646558,1.5909069 z"
   id="path2"
   inkscape:connector-curvature="0" />
<path
   style="fill:#fada6d;stroke-width:0.08315859"
   d="m 0.0948598,22.74337 v 0 c 1.5083305,3.659144 5.0751692,6.046793 9.0329354,6.046793 h 3.5862978 c 2.759202,0 5.364893,-1.269915 7.064988,-3.443099 v 0 c 0.504439,-0.64481 1.468414,-0.67874 2.017011,-0.07102 v 0 c 2.019424,2.2373 4.892137,3.514201 7.906054,3.514201 h 1.414028 c 4.563329,0 8.811237,-2.328109 11.266408,-6.174692 v 0 c 0.640406,-1.003308 -0.413213,-2.226239 -1.500263,-1.741425 l -2.632385,1.174116 c -0.914911,0.408058 -1.905495,0.618948 -2.907223,0.618948 v 0 c -3.504387,0 -6.490363,-2.544401 -7.046444,-6.00438 v 0 c -0.197419,-1.228503 -0.05405,-2.487524 0.414546,-3.640186 l 1.094449,-2.69201 C 31.236838,6.809351 28.534849,2.9907914 24.737911,3.1690004 v 0 c -1.754563,0.082327 -3.349379,1.0438901 -4.241255,2.5571268 L 12.559834,19.191998 c -1.294946,2.197134 -3.6551525,3.545633 -6.2055439,3.545633 v 0 c -1.2241776,0 -2.4280644,-0.311927 -3.4981493,-0.906513 L 1.7870539,21.237201 C 0.79430672,20.685692 -0.33789752,21.693574 0.0948598,22.74337 Z"
   id="path4"
   inkscape:connector-curvature="0" />
<path
   style="fill:#f2c55a;stroke-width:0.08315859"
   d="m 21.796009,25.275962 v 0 c 2.019424,2.2373 4.89222,3.514201 7.906054,3.514201 h 1.414028 c 3.885253,0 7.541073,-1.688618 10.057285,-4.564241 C 20.85981,32.109519 18.125056,13.931301 20.834197,5.2246811 20.713118,5.3843454 20.59969,5.5509954 20.496573,5.7259608 L 12.55975,19.191831 c -1.294944,2.197134 -3.6551523,3.545633 -6.2055431,3.545633 v 0 c -1.2241775,0 -2.4280644,-0.311927 -3.4981492,-0.90651 L 1.7869708,21.237033 c -0.99258094,-0.551422 -2.12486832,0.456457 -1.692111,1.506253 v 0 C 1.6031903,26.40243 5.170029,28.79008 9.1277952,28.79008 h 3.5862978 c 2.759202,0 5.364893,-1.269916 7.064988,-3.4431 v 0 c 0.504356,-0.64481 1.468414,-0.67874 2.016928,-0.07102 z"
   id="path6"
   inkscape:connector-curvature="0" />
<g
   id="g14"
   transform="matrix(0.08315859,0,0,0.08315859,-2.4152676e-5,-6.8935216)">
	<path
   style="fill:#ebac40"
   d="m 248.996,364.304 c -4.142,0 -7.5,-3.358 -7.5,-7.5 0,-20.924 6.167,-70.162 29.28,-121.977 1.689,-3.783 6.123,-5.481 9.905,-3.794 3.782,1.688 5.481,6.122 3.794,9.905 -22.086,49.513 -27.979,96.128 -27.979,115.867 0,4.141 -3.358,7.499 -7.5,7.499 z"
   id="path8"
   inkscape:connector-curvature="0" />
	<path
   style="fill:#ebac40"
   d="m 137.493,429.104 c 2.508,-3.422 4.222,-7.792 5.257,-13.08 2.921,-14.93 -7.79,-26.614 -26.289,-25.64 -18.499,0.974 -21.745,6.816 -28.236,13.307 -3.816,3.816 -4.821,15.259 2.519,23.849 6.223,1.02 12.576,1.564 19.021,1.564 z"
   id="path10"
   inkscape:connector-curvature="0" />
	<path
   style="fill:#ebac40"
   d="m 388.519,349.521 c 0.204,-0.678 0.366,-1.326 0.508,-1.961 -11.134,-5.148 -21.014,-12.621 -28.99,-21.855 -14.976,-2.029 -27.561,3.361 -22.722,16.904 4.653,13.024 -4.806,23.42 23.932,21.958 15.701,-0.798 22.672,0.205 27.272,-15.046 z"
   id="path12"
   inkscape:connector-curvature="0" />
</g>


<g
   id="g34"
   transform="matrix(0.08315859,0,0,0.08315859,-2.4152676e-5,-6.8935216)">
	<path
   style="fill:#ebac40"
   d="m 198.872,304.843 c -1.919,0 -3.839,-0.733 -5.303,-2.197 -2.929,-2.929 -2.929,-7.678 0,-10.607 l 10.391,-10.391 c 2.929,-2.929 7.678,-2.929 10.606,0 2.929,2.929 2.929,7.678 0,10.607 l -10.391,10.391 c -1.465,1.465 -3.384,2.197 -5.303,2.197 z"
   id="path30"
   inkscape:connector-curvature="0" />
	<path
   style="fill:#ebac40"
   d="m 193.991,336.956 c -1.919,0 -3.839,-0.732 -5.303,-2.197 -2.929,-2.929 -2.929,-7.678 0,-10.607 l 10.077,-10.077 c 2.929,-2.929 7.678,-2.929 10.606,0 2.929,2.929 2.929,7.678 0,10.606 l -10.077,10.077 c -1.464,1.465 -3.384,2.198 -5.303,2.198 z"
   id="path32"
   inkscape:connector-curvature="0" />
</g>
<g
   id="g36"
   transform="matrix(0.08315859,0,0,0.08315859,-2.4152676e-5,-6.8935216)">
</g>
<g
   id="g38"
   transform="matrix(0.08315859,0,0,0.08315859,-2.4152676e-5,-6.8935216)">
</g>
<g
   id="g40"
   transform="matrix(0.08315859,0,0,0.08315859,-2.4152676e-5,-6.8935216)">
</g>
<g
   id="g42"
   transform="matrix(0.08315859,0,0,0.08315859,-2.4152676e-5,-6.8935216)">
</g>
<g
   id="g44"
   transform="matrix(0.08315859,0,0,0.08315859,-2.4152676e-5,-6.8935216)">
</g>
<g
   id="g46"
   transform="matrix(0.08315859,0,0,0.08315859,-2.4152676e-5,-6.8935216)">
</g>
<g
   id="g48"
   transform="matrix(0.08315859,0,0,0.08315859,-2.4152676e-5,-6.8935216)">
</g>
<g
   id="g50"
   transform="matrix(0.08315859,0,0,0.08315859,-2.4152676e-5,-6.8935216)">
</g>
<g
   id="g52"
   transform="matrix(0.08315859,0,0,0.08315859,-2.4152676e-5,-6.8935216)">
</g>
<g
   id="g54"
   transform="matrix(0.08315859,0,0,0.08315859,-2.4152676e-5,-6.8935216)">
</g>
<g
   id="g56"
   transform="matrix(0.08315859,0,0,0.08315859,-2.4152676e-5,-6.8935216)">
</g>
<g
   id="g58"
   transform="matrix(0.08315859,0,0,0.08315859,-2.4152676e-5,-6.8935216)">
</g>
<g
   id="g60"
   transform="matrix(0.08315859,0,0,0.08315859,-2.4152676e-5,-6.8935216)">
</g>
<g
   id="g62"
   transform="matrix(0.08315859,0,0,0.08315859,-2.4152676e-5,-6.8935216)">
</g>
<g
   id="g64"
   transform="matrix(0.08315859,0,0,0.08315859,-2.4152676e-5,-6.8935216)">
</g>
</svg>