<?xml version="1.0" encoding="UTF-8" standalone="no"?>
<!-- Generator: Adobe Illustrator 19.0.0, SVG Export Plug-In . SVG Version: 6.00 Build 0)  -->

<svg
   xmlns:dc="http://purl.org/dc/elements/1.1/"
   xmlns:cc="http://creativecommons.org/ns#"
   xmlns:rdf="http://www.w3.org/1999/02/22-rdf-syntax-ns#"
   xmlns:svg="http://www.w3.org/2000/svg"
   xmlns="http://www.w3.org/2000/svg"
   xmlns:sodipodi="http://sodipodi.sourceforge.net/DTD/sodipodi-0.dtd"
   xmlns:inkscape="http://www.inkscape.org/namespaces/inkscape"
   version="1.1"
   id="Layer_1"
   x="0px"
   y="0px"
   viewBox="0 0 27.118288 27.117992"
   xml:space="preserve"
   sodipodi:docname="plant.svg"
   width="27.118288"
   height="27.117992"
   inkscape:version="0.92.4 (33fec40, 2019-01-16)"><metadata
   id="metadata55"><rdf:RDF><cc:Work
       rdf:about=""><dc:format>image/svg+xml</dc:format><dc:type
         rdf:resource="http://purl.org/dc/dcmitype/StillImage" /></cc:Work></rdf:RDF></metadata><defs
   id="defs53" /><sodipodi:namedview
   pagecolor="#ffffff"
   bordercolor="#666666"
   borderopacity="1"
   objecttolerance="10"
   gridtolerance="10"
   guidetolerance="10"
   inkscape:pageopacity="0"
   inkscape:pageshadow="2"
   inkscape:window-width="1920"
   inkscape:window-height="971"
   id="namedview51"
   showgrid="false"
   inkscape:zoom="1.8437536"
   inkscape:cx="-53.271602"
   inkscape:cy="-82.023957"
   inkscape:window-x="0"
   inkscape:window-y="27"
   inkscape:window-maximized="1"
   inkscape:current-layer="Layer_1" />
<path
   style="fill:#88cc2a;stroke-width:0.05296554"
   d="m 14.320002,23.411833 c -2.719304,0 -5.4386073,-1.034999 -7.5086071,-3.105316 v 0 C 4.8088211,18.303943 3.7054958,15.637075 3.7054958,12.797645 c 0,-2.8394292 1.1032721,-5.5059796 3.1058991,-7.5086066 C 12.65217,-0.55231921 25.701344,-9.47936e-4 26.25155,0.02468739 c 0.455715,0.02187477 0.820384,0.3862777 0.841729,0.84199318 0.02648,0.55248363 0.57727,13.59853243 -5.264087,19.43983643 -2.069946,2.07 -4.789251,3.105316 -7.50919,3.105316 z"
   id="path2"
   inkscape:connector-curvature="0" />
<g
   id="g8"
   transform="matrix(0.05296554,0,0,0.05296554,-2.6479573e-5,-1.5345102e-4)">
	<path
   style="fill:#7fb335"
   d="m 270.365,442.023 c 51.352,0 102.693,-19.547 141.775,-58.629 C 522.426,273.108 512.027,26.798 511.527,16.366 511.325,12.062 509.501,8.19 506.653,5.343 L 128.602,383.394 c 39.082,39.088 90.423,58.629 141.763,58.629 z"
   id="path4"
   inkscape:connector-curvature="0" />
	<path
   style="fill:#7fb335"
   d="m 294.002,234.706 c -9.224,0 -16.708,-7.478 -16.708,-16.708 V 99.855 c 0,-9.229 7.484,-16.708 16.708,-16.708 9.224,0 16.708,7.478 16.708,16.708 v 118.144 c 0,9.229 -7.484,16.707 -16.708,16.707 z"
   id="path6"
   inkscape:connector-curvature="0" />
</g>
<path
   style="fill:#73a62a;stroke-width:0.05296554"
   d="m 21.829244,12.431177 h -6.257296 c -0.488553,0 -0.884948,-0.396076 -0.884948,-0.884949 0,-0.488819 0.396395,-0.884948 0.884948,-0.884948 h 6.257296 c 0.488555,0 0.884949,0.396077 0.884949,0.884948 0,0.488873 -0.396394,0.884949 -0.884949,0.884949 z"
   id="path10"
   inkscape:connector-curvature="0" />
<path
   style="fill:#7fb335;stroke-width:0.05296554"
   d="m 9.9403344,18.062792 c -0.4885543,0 -0.8849486,-0.396077 -0.8849486,-0.884949 v -6.257509 c 0,-0.488818 0.3963943,-0.884948 0.8849486,-0.884948 0.4885546,0 0.8849486,0.396078 0.8849486,0.884948 v 6.257562 c 0,0.488819 -0.396394,0.884896 -0.8849486,0.884896 z"
   id="path12"
   inkscape:connector-curvature="0" />
<path
   style="fill:#73a62a;stroke-width:0.05296554"
   d="M 16.197683,18.062792 H 9.9403344 c -0.4885543,0 -0.8849486,-0.396077 -0.8849486,-0.884949 0,-0.488819 0.3963943,-0.884948 0.8849486,-0.884948 h 6.2572426 c 0.488555,0 0.884949,0.396075 0.884949,0.884948 0,0.488872 -0.396341,0.884949 -0.884843,0.884949 z"
   id="path14"
   inkscape:connector-curvature="0" />
<path
   style="fill:#7fb335;stroke-width:0.05296554"
   d="m 0.8848688,27.117992 c -0.22642768,0 -0.45285537,-0.08644 -0.62562896,-0.259267 -0.34565312,-0.345334 -0.34565312,-0.905922 0,-1.251364 L 20.577934,5.2890384 c 0.345652,-0.3456532 0.90571,-0.3456532 1.251364,0 0.345652,0.3453354 0.345652,0.9059228 0,1.2513639 L 1.5104977,26.858779 c -0.1727735,0.172826 -0.3992012,0.259213 -0.6256289,0.259213 z"
   id="path16"
   inkscape:connector-curvature="0" />
<path
   style="fill:#73a62a;stroke-width:0.05296554"
   d="m 0.8848688,27.117992 c 0.2264277,0 0.4528554,-0.08644 0.6256289,-0.259267 L 21.829244,6.5403494 c 0.345653,-0.3453354 0.345653,-0.9059228 0,-1.2513639 0,-5.31e-5 -1.06e-4,-5.31e-5 -1.06e-4,-5.31e-5 L 0.25918687,26.858779 c 0.17282656,0.172826 0.39925425,0.259213 0.62568193,0.259213 z"
   id="path18"
   inkscape:connector-curvature="0" />
<g
   id="g20"
   transform="matrix(0.05296554,0,0,0.05296554,-2.6479573e-5,-1.5345102e-4)">
</g>
<g
   id="g22"
   transform="matrix(0.05296554,0,0,0.05296554,-2.6479573e-5,-1.5345102e-4)">
</g>
<g
   id="g24"
   transform="matrix(0.05296554,0,0,0.05296554,-2.6479573e-5,-1.5345102e-4)">
</g>
<g
   id="g26"
   transform="matrix(0.05296554,0,0,0.05296554,-2.6479573e-5,-1.5345102e-4)">
</g>
<g
   id="g28"
   transform="matrix(0.05296554,0,0,0.05296554,-2.6479573e-5,-1.5345102e-4)">
</g>
<g
   id="g30"
   transform="matrix(0.05296554,0,0,0.05296554,-2.6479573e-5,-1.5345102e-4)">
</g>
<g
   id="g32"
   transform="matrix(0.05296554,0,0,0.05296554,-2.6479573e-5,-1.5345102e-4)">
</g>
<g
   id="g34"
   transform="matrix(0.05296554,0,0,0.05296554,-2.6479573e-5,-1.5345102e-4)">
</g>
<g
   id="g36"
   transform="matrix(0.05296554,0,0,0.05296554,-2.6479573e-5,-1.5345102e-4)">
</g>
<g
   id="g38"
   transform="matrix(0.05296554,0,0,0.05296554,-2.6479573e-5,-1.5345102e-4)">
</g>
<g
   id="g40"
   transform="matrix(0.05296554,0,0,0.05296554,-2.6479573e-5,-1.5345102e-4)">
</g>
<g
   id="g42"
   transform="matrix(0.05296554,0,0,0.05296554,-2.6479573e-5,-1.5345102e-4)">
</g>
<g
   id="g44"
   transform="matrix(0.05296554,0,0,0.05296554,-2.6479573e-5,-1.5345102e-4)">
</g>
<g
   id="g46"
   transform="matrix(0.05296554,0,0,0.05296554,-2.6479573e-5,-1.5345102e-4)">
</g>
<g
   id="g48"
   transform="matrix(0.05296554,0,0,0.05296554,-2.6479573e-5,-1.5345102e-4)">
</g>
</svg>