<?xml version="1.0" encoding="UTF-8" standalone="no"?>
<svg
   xmlns:dc="http://purl.org/dc/elements/1.1/"
   xmlns:cc="http://creativecommons.org/ns#"
   xmlns:rdf="http://www.w3.org/1999/02/22-rdf-syntax-ns#"
   xmlns:svg="http://www.w3.org/2000/svg"
   xmlns="http://www.w3.org/2000/svg"
   xmlns:sodipodi="http://sodipodi.sourceforge.net/DTD/sodipodi-0.dtd"
   xmlns:inkscape="http://www.inkscape.org/namespaces/inkscape"
   width="24"
   height="24"
   viewBox="0 0 24 24"
   version="1.1"
   id="svg4"
   sodipodi:docname="warning_red.svg"
   inkscape:version="0.92.4 (33fec40, 2019-01-16)">
  <metadata
     id="metadata10">
    <rdf:RDF>
      <cc:Work
         rdf:about="">
        <dc:format>image/svg+xml</dc:format>
        <dc:type
           rdf:resource="http://purl.org/dc/dcmitype/StillImage" />
        <dc:title />
      </cc:Work>
    </rdf:RDF>
  </metadata>
  <defs
     id="defs8" />
  <sodipodi:namedview
     pagecolor="#ffffff"
     bordercolor="#666666"
     borderopacity="1"
     objecttolerance="10"
     gridtolerance="10"
     guidetolerance="10"
     inkscape:pageopacity="0"
     inkscape:pageshadow="2"
     inkscape:window-width="1920"
     inkscape:window-height="971"
     id="namedview6"
     showgrid="false"
     inkscape:zoom="9.8333333"
     inkscape:cx="-4.881356"
     inkscape:cy="12"
     inkscape:window-x="0"
     inkscape:window-y="27"
     inkscape:window-maximized="1"
     inkscape:current-layer="svg4" />
  <rect
     style="fill:#ffffff;stroke:none;stroke-width:56.69291306;stroke-miterlimit:4;stroke-dasharray:none"
     id="rect816"
     width="5.4915257"
     height="12.915255"
     x="9.0508471"
     y="7.2203388" />
  <path
     d="M 2.5439043,22.016949 H 21.476054 c 1.935957,0 3.142788,-2.099381 2.174809,-3.771344 L 14.184788,1.8905399 c -0.967978,-1.6719628 -3.381639,-1.6719628 -4.349617,0 L 0.36909563,18.245605 c -0.9679785,1.671963 0.2388518,3.771344 2.17480867,3.771344 z m 9.4660747,-8.799804 c -0.691413,0 -1.257115,-0.565702 -1.257115,-1.257115 V 9.4458008 c 0,-0.691414 0.565702,-1.257115 1.257115,-1.257115 0.691414,0 1.257115,0.565701 1.257115,1.257115 V 11.96003 c 0,0.691413 -0.565701,1.257115 -1.257115,1.257115 z m 1.257115,5.02846 h -2.51423 v -2.51423 h 2.51423 z"
     id="path2"
     style="fill:#ff0000;stroke-width:1.25711489"
     inkscape:connector-curvature="0" />
</svg>
