<?xml version="1.0" encoding="UTF-8" standalone="no"?>
<!-- Generator: Adobe Illustrator 19.0.0, SVG Export Plug-In . SVG Version: 6.00 Build 0)  -->

<svg
   xmlns:dc="http://purl.org/dc/elements/1.1/"
   xmlns:cc="http://creativecommons.org/ns#"
   xmlns:rdf="http://www.w3.org/1999/02/22-rdf-syntax-ns#"
   xmlns:svg="http://www.w3.org/2000/svg"
   xmlns="http://www.w3.org/2000/svg"
   xmlns:sodipodi="http://sodipodi.sourceforge.net/DTD/sodipodi-0.dtd"
   xmlns:inkscape="http://www.inkscape.org/namespaces/inkscape"
   version="1.1"
   id="Capa_1"
   x="0px"
   y="0px"
   viewBox="0 0 24.298339 35.859702"
   xml:space="preserve"
   sodipodi:docname="water.svg"
   width="24.29834"
   height="35.859703"
   inkscape:version="0.92.4 (33fec40, 2019-01-16)"><metadata
   id="metadata1025"><rdf:RDF><cc:Work
       rdf:about=""><dc:format>image/svg+xml</dc:format><dc:type
         rdf:resource="http://purl.org/dc/dcmitype/StillImage" /><dc:title></dc:title></cc:Work></rdf:RDF></metadata><defs
   id="defs1023">
	
	
	

		
	
	
	
			
			
			
			
		</defs><sodipodi:namedview
   pagecolor="#ffffff"
   bordercolor="#666666"
   borderopacity="1"
   objecttolerance="10"
   gridtolerance="10"
   guidetolerance="10"
   inkscape:pageopacity="0"
   inkscape:pageshadow="2"
   inkscape:window-width="1920"
   inkscape:window-height="971"
   id="namedview1021"
   showgrid="false"
   inkscape:zoom="2.3475462"
   inkscape:cx="21.356163"
   inkscape:cy="16.271611"
   inkscape:window-x="0"
   inkscape:window-y="27"
   inkscape:window-maximized="1"
   inkscape:current-layer="Capa_1" />
<path
   inkscape:connector-curvature="0"
   id="path977"
   d="M 13.126694,0.86854818 C 12.263555,0.11873252 10.213985,-1.0865034 9.8784899,2.0350544 8.6738761,10.108431 0,15.750669 0,23.710596 c 0,6.709734 5.4393695,12.149107 12.149233,12.149107 6.709734,0 12.149107,-5.439373 12.149107,-12.149107 C 24.298214,17.622777 21.854744,8.4506405 13.126694,0.86854818 Z M 7.3974093,30.154329 c -0.1881673,0.251807 -0.4762126,0.385056 -0.7676236,0.385056 -0.1972582,0 -0.3961424,-0.0609 -0.5671244,-0.187424 -0.1068499,-0.0792 -2.6246678,-1.979953 -3.1673824,-5.572618 -0.5425961,-3.591919 1.8897936,-6.95806 1.9936553,-7.099655 0.3125771,-0.426277 0.9118328,-0.518805 1.3384844,-0.205727 0.4259039,0.312581 0.5183083,0.910836 0.2066012,1.337366 -0.031513,0.04346 -2.0671301,2.888428 -1.6449628,5.682083 0.420675,2.785566 2.3967708,4.306867 2.4166965,4.321934 0.420675,0.31781 0.5073475,0.91694 0.1916558,1.338985 z"
   style="fill:#62a5a2;stroke-width:0.12453344" /><path
   inkscape:connector-curvature="0"
   id="path979"
   d="m 7.2058795,28.815344 c -0.019922,-0.01507 -1.9960216,-1.536368 -2.4166966,-4.321934 -0.422171,-2.793655 1.613454,-5.638621 1.6449628,-5.682083 0.3117072,-0.42653 0.2192988,-1.024785 -0.2066012,-1.337366 -0.4266554,-0.312952 -1.0259073,-0.22055 -1.3384881,0.205727 -0.1038616,0.141595 -2.5362477,3.507736 -1.9936553,7.099655 0.5425924,3.592665 3.0604103,5.493415 3.1673824,5.572618 0.1709857,0.126528 0.3698661,0.187424 0.5671281,0.187424 0.2914078,0 0.5794523,-0.133127 0.7676237,-0.385056 0.3155657,-0.422045 0.2288932,-1.021175 -0.1916558,-1.338985 z"
   style="fill:#f7f1e6;stroke-width:0.12453344" />
<g
   id="g990"
   transform="translate(-184.80292,-191.11226)">
</g>
<g
   id="g992"
   transform="translate(-184.80292,-191.11226)">
</g>
<g
   id="g994"
   transform="translate(-184.80292,-191.11226)">
</g>
<g
   id="g996"
   transform="translate(-184.80292,-191.11226)">
</g>
<g
   id="g998"
   transform="translate(-184.80292,-191.11226)">
</g>
<g
   id="g1000"
   transform="translate(-184.80292,-191.11226)">
</g>
<g
   id="g1002"
   transform="translate(-184.80292,-191.11226)">
</g>
<g
   id="g1004"
   transform="translate(-184.80292,-191.11226)">
</g>
<g
   id="g1006"
   transform="translate(-184.80292,-191.11226)">
</g>
<g
   id="g1008"
   transform="translate(-184.80292,-191.11226)">
</g>
<g
   id="g1010"
   transform="translate(-184.80292,-191.11226)">
</g>
<g
   id="g1012"
   transform="translate(-184.80292,-191.11226)">
</g>
<g
   id="g1014"
   transform="translate(-184.80292,-191.11226)">
</g>
<g
   id="g1016"
   transform="translate(-184.80292,-191.11226)">
</g>
<g
   id="g1018"
   transform="translate(-184.80292,-191.11226)">
</g>
</svg>