<svg xmlns="http://www.w3.org/2000/svg" xmlns:xlink="http://www.w3.org/1999/xlink" viewBox="0 0 169.342 36.21" class="svg-dark-logo">
  <defs>
    <style>
      .svg-dark-logo .cls-1 {
        fill: url(#linear-gradient);
      }

      .svg-dark-logo .cls-2 {
        clip-path: url(#clip-path);
      }

      .svg-dark-logo .cls-3 {
        clip-path: url(#clip-path-2);
      }

      .svg-dark-logo .cls-4 {
        clip-path: url(#clip-path-3);
      }

      .svg-dark-logo .cls-5 {
        clip-path: url(#clip-path-4);
      }

      .svg-dark-logo .cls-6 {
        clip-path: url(#clip-path-5);
      }
    </style>
    <linearGradient id="linear-gradient" y1="0.5" x2="1" y2="0.5" gradientUnits="objectBoundingBox">
      <stop offset="0" stop-color="#343433" stop-opacity="0.902"/>
      <stop offset="1" stop-color="#1d1d1b" stop-opacity="0.902"/>
    </linearGradient>
    <clipPath id="clip-path">
      <path id="Clip_2" data-name="Clip 2" class="cls-1" d="M2.5,0A2.5,2.5,0,0,0,.195,3.458h0L13.222,34.673a2.5,2.5,0,0,0,4.617,0h0L30.867,3.458a2.489,2.489,0,0,0,.195-.954h0V2.486A2.5,2.5,0,0,0,28.558,0H2.5Z" transform="translate(0)"/>
    </clipPath>
    <clipPath id="clip-path-2">
      <path id="Clip_2-2" data-name="Clip 2" class="cls-1" d="M17.491,35.86H.731A.721.721,0,0,1,0,35.151V.709A.724.724,0,0,1,.712,0H17.031c3.879.015,6.879.839,8.917,2.448a8.462,8.462,0,0,1,3.074,7.031,8.09,8.09,0,0,1-1.061,4.408,8.3,8.3,0,0,1-3.477,2.952.351.351,0,0,0-.2.334.355.355,0,0,0,.234.313c4.133,1.571,5.9,4.052,5.9,8.295a8.979,8.979,0,0,1-3.3,7.5C24.922,34.993,21.684,35.86,17.491,35.86ZM8.265,20.212a.721.721,0,0,0-.731.709v7.4a.721.721,0,0,0,.731.709H16.87a6.341,6.341,0,0,0,3.988-1.064,4.1,4.1,0,0,0,1.389-3.4A3.834,3.834,0,0,0,20.8,21.244a7.057,7.057,0,0,0-4.24-1.033Zm0-13.88a.721.721,0,0,0-.731.709v6.745a.721.721,0,0,0,.731.709h8.192c3.147,0,4.55-1.256,4.55-4.071s-1.515-4.092-4.912-4.092Z" transform="translate(0 0)"/>
    </clipPath>
    <clipPath id="clip-path-3">
      <path id="Clip_5" data-name="Clip 5" class="cls-1" d="M18.4,0C8.184.047-.1,8.168,0,18.107H0C.1,27.978,8.545,35.86,18.722,35.86H29.231a.72.72,0,0,0,.731-.709h0V29.066a.72.72,0,0,0-.731-.709H18.486A10.612,10.612,0,0,1,7.737,18.111h0C7.634,12.277,12.661,7.5,18.677,7.5H29.231a.72.72,0,0,0,.731-.709h0V.709A.72.72,0,0,0,29.249,0H18.4Z"/>
    </clipPath>
    <clipPath id="clip-path-4">
      <path id="Clip_2-3" data-name="Clip 2" class="cls-1" d="M20.029,35.039H9.718a9.17,9.17,0,0,1-6.563-2.749A9.375,9.375,0,0,1,.436,25.655V24.594a1.243,1.243,0,0,1,1.235-1.248c.04,0,.081,0,.121.006a1.282,1.282,0,0,1,1.113,1.3v1.008a6.858,6.858,0,0,0,6.813,6.888H20.029a6.858,6.858,0,0,0,6.813-6.888V16.813a.446.446,0,0,0-.743-.337,9.212,9.212,0,0,1-6.07,2.292H9.281a9.168,9.168,0,0,1-6.563-2.755A9.408,9.408,0,0,1,0,9.158a9.269,9.269,0,0,1,2.87-6.5A9.454,9.454,0,0,1,9.455,0H20.029a9.344,9.344,0,0,1,9.281,9.384c0,.071,0,.143,0,.212q0,.035,0,.071c0,.01,0,.02,0,.03a.3.3,0,0,1,0,.04V25.655a9.375,9.375,0,0,1-2.718,6.635A9.17,9.17,0,0,1,20.029,35.039ZM9.281,2.5a6.888,6.888,0,0,0,0,13.776H20.029a6.888,6.888,0,0,0,0-13.776Z" transform="translate(0 0)"/>
    </clipPath>
    <clipPath id="clip-path-5">
      <path id="Clip_5-2" data-name="Clip 5" class="cls-1" d="M10.663,0a1.286,1.286,0,0,0-.9.366h0L.373,9.562a1.229,1.229,0,0,0,0,1.765h0a1.293,1.293,0,0,0,1.8,0h0L8.755,4.884a.374.374,0,0,1,.637.259h0V32.091a.457.457,0,0,1-.462.452H3.5a1.3,1.3,0,0,0-1.323,1.126h0a1.258,1.258,0,0,0,1.268,1.37H17.89a1.259,1.259,0,0,0,1.268-1.37h0a1.3,1.3,0,0,0-1.323-1.126H12.4a.457.457,0,0,1-.462-.452h0V1.3A1.3,1.3,0,0,0,11.4.231h0A1.292,1.292,0,0,0,10.67,0h-.007Z" transform="translate(0)"/>
    </clipPath>
  </defs>
  <g id="Group" transform="translate(0 0)">
    <g id="Group_7" data-name="Group 7" transform="translate(67.042)">
      <path id="Clip_2-4" data-name="Clip 2" class="cls-1" d="M2.5,0A2.5,2.5,0,0,0,.195,3.458h0L13.222,34.673a2.5,2.5,0,0,0,4.617,0h0L30.867,3.458a2.489,2.489,0,0,0,.195-.954h0V2.486A2.5,2.5,0,0,0,28.558,0H2.5Z" transform="translate(13.805)"/>
      <path id="Fill_4" data-name="Fill 4" class="cls-1" d="M13.222,34.673.195,3.457A2.5,2.5,0,0,1,2.5,0H28.558a2.5,2.5,0,0,1,2.309,3.457L17.84,34.673a2.5,2.5,0,0,1-4.618,0" transform="translate(0)"/>
    </g>
    <g id="Group_3" data-name="Group 3" transform="translate(0 0.154)">
      <path id="Clip_2-5" data-name="Clip 2" class="cls-1" d="M17.491,35.86H.731A.721.721,0,0,1,0,35.151V.709A.724.724,0,0,1,.712,0H17.031c3.879.015,6.879.839,8.917,2.448a8.462,8.462,0,0,1,3.074,7.031,8.09,8.09,0,0,1-1.061,4.408,8.3,8.3,0,0,1-3.477,2.952.351.351,0,0,0-.2.334.355.355,0,0,0,.234.313c4.133,1.571,5.9,4.052,5.9,8.295a8.979,8.979,0,0,1-3.3,7.5C24.922,34.993,21.684,35.86,17.491,35.86ZM8.265,20.212a.721.721,0,0,0-.731.709v7.4a.721.721,0,0,0,.731.709H16.87a6.341,6.341,0,0,0,3.988-1.064,4.1,4.1,0,0,0,1.389-3.4A3.834,3.834,0,0,0,20.8,21.244a7.057,7.057,0,0,0-4.24-1.033Zm0-13.88a.721.721,0,0,0-.731.709v6.745a.721.721,0,0,0,.731.709h8.192c3.147,0,4.55-1.256,4.55-4.071s-1.515-4.092-4.912-4.092Z" transform="translate(0 0)"/>
      <g id="Group_3-2" data-name="Group 3" class="cls-3">
        <path id="Fill_1" data-name="Fill 1" class="cls-1" d="M17.491,35.86H.731A.721.721,0,0,1,0,35.151V.709A.724.724,0,0,1,.712,0H17.031c3.879.015,6.879.839,8.917,2.448a8.462,8.462,0,0,1,3.074,7.031,8.09,8.09,0,0,1-1.061,4.408,8.3,8.3,0,0,1-3.477,2.952.351.351,0,0,0-.2.334.355.355,0,0,0,.234.313c4.133,1.571,5.9,4.052,5.9,8.295a8.979,8.979,0,0,1-3.3,7.5C24.922,34.993,21.684,35.86,17.491,35.86ZM8.265,20.212a.721.721,0,0,0-.731.709v7.4a.721.721,0,0,0,.731.709H16.87a6.341,6.341,0,0,0,3.988-1.064,4.1,4.1,0,0,0,1.389-3.4A3.834,3.834,0,0,0,20.8,21.244a7.057,7.057,0,0,0-4.24-1.033Zm0-13.88a.721.721,0,0,0-.731.709v6.745a.721.721,0,0,0,.731.709h8.192c3.147,0,4.55-1.256,4.55-4.071s-1.515-4.092-4.912-4.092Z" transform="translate(0 0)"/>
      </g>
    </g>
    <g id="Group_6" data-name="Group 6" transform="translate(33.765 0.154)">
      <path id="Clip_5-3" data-name="Clip 5" class="cls-1" d="M18.4,0C8.184.047-.1,8.168,0,18.107H0C.1,27.978,8.545,35.86,18.722,35.86H29.231a.72.72,0,0,0,.731-.709h0V29.066a.72.72,0,0,0-.731-.709H18.486A10.612,10.612,0,0,1,7.737,18.111h0C7.634,12.277,12.661,7.5,18.677,7.5H29.231a.72.72,0,0,0,.731-.709h0V.709A.72.72,0,0,0,29.249,0H18.4Z" transform="translate(0)"/>
      <g id="Group_6-2" data-name="Group 6" class="cls-4" transform="translate(0)">
        <path id="Fill_4-2" data-name="Fill 4" class="cls-1" d="M18.4,0C8.184.047-.1,8.168,0,18.107H0C.1,27.978,8.545,35.86,18.722,35.86H29.231a.72.72,0,0,0,.731-.709h0V29.066a.72.72,0,0,0-.731-.709H18.486A10.612,10.612,0,0,1,7.737,18.111h0C7.634,12.277,12.661,7.5,18.677,7.5H29.231a.72.72,0,0,0,.731-.709h0V.709A.72.72,0,0,0,29.249,0H18.4Z"/>
      </g>
    </g>
    <g id="Group_7-3" data-name="Group 7" transform="translate(117.066 0.151)">
      <g id="Group_3-3" data-name="Group 3" transform="translate(22.965 0)">
        <path id="Clip_2-6" data-name="Clip 2" class="cls-1" d="M20.029,35.039H9.718a9.17,9.17,0,0,1-6.563-2.749A9.375,9.375,0,0,1,.436,25.655V24.594a1.243,1.243,0,0,1,1.235-1.248c.04,0,.081,0,.121.006a1.282,1.282,0,0,1,1.113,1.3v1.008a6.858,6.858,0,0,0,6.813,6.888H20.029a6.858,6.858,0,0,0,6.813-6.888V16.813a.446.446,0,0,0-.743-.337,9.212,9.212,0,0,1-6.07,2.292H9.281a9.168,9.168,0,0,1-6.563-2.755A9.408,9.408,0,0,1,0,9.158a9.269,9.269,0,0,1,2.87-6.5A9.454,9.454,0,0,1,9.455,0H20.029a9.344,9.344,0,0,1,9.281,9.384c0,.071,0,.143,0,.212q0,.035,0,.071c0,.01,0,.02,0,.03a.3.3,0,0,1,0,.04V25.655a9.375,9.375,0,0,1-2.718,6.635A9.17,9.17,0,0,1,20.029,35.039ZM9.281,2.5a6.888,6.888,0,0,0,0,13.776H20.029a6.888,6.888,0,0,0,0-13.776Z" transform="translate(0 0)"/>
        <g id="Group_3-4" data-name="Group 3" class="cls-5" transform="translate(0)">
          <path id="Fill_1-2" data-name="Fill 1" class="cls-1" d="M20.029,35.039H9.718a9.17,9.17,0,0,1-6.563-2.749A9.375,9.375,0,0,1,.436,25.655V24.594a1.243,1.243,0,0,1,1.235-1.248c.04,0,.081,0,.121.006a1.282,1.282,0,0,1,1.113,1.3v1.008a6.858,6.858,0,0,0,6.813,6.888H20.029a6.858,6.858,0,0,0,6.813-6.888V16.813a.446.446,0,0,0-.743-.337,9.212,9.212,0,0,1-6.07,2.292H9.281a9.168,9.168,0,0,1-6.563-2.755A9.408,9.408,0,0,1,0,9.158a9.269,9.269,0,0,1,2.87-6.5A9.454,9.454,0,0,1,9.455,0H20.029a9.344,9.344,0,0,1,9.281,9.384c0,.071,0,.143,0,.212q0,.035,0,.071c0,.01,0,.02,0,.03a.3.3,0,0,1,0,.04V25.655a9.375,9.375,0,0,1-2.718,6.635A9.17,9.17,0,0,1,20.029,35.039ZM9.281,2.5a6.888,6.888,0,0,0,0,13.776H20.029a6.888,6.888,0,0,0,0-13.776Z" transform="translate(0 0)"/>
        </g>
      </g>
      <g id="Group_6-3" data-name="Group 6" transform="translate(0)">
        <path id="Clip_5-4" data-name="Clip 5" class="cls-1" d="M10.663,0a1.286,1.286,0,0,0-.9.366h0L.373,9.562a1.229,1.229,0,0,0,0,1.765h0a1.293,1.293,0,0,0,1.8,0h0L8.755,4.884a.374.374,0,0,1,.637.259h0V32.091a.457.457,0,0,1-.462.452H3.5a1.3,1.3,0,0,0-1.323,1.126h0a1.258,1.258,0,0,0,1.268,1.37H17.89a1.259,1.259,0,0,0,1.268-1.37h0a1.3,1.3,0,0,0-1.323-1.126H12.4a.457.457,0,0,1-.462-.452h0V1.3A1.3,1.3,0,0,0,11.4.231h0A1.292,1.292,0,0,0,10.67,0h-.007Z" transform="translate(0)"/>
        <g id="Group_6-4" data-name="Group 6" class="cls-6">
          <path id="Fill_4-3" data-name="Fill 4" class="cls-1" d="M10.663,0a1.286,1.286,0,0,0-.9.366h0L.373,9.562a1.229,1.229,0,0,0,0,1.765h0a1.293,1.293,0,0,0,1.8,0h0L8.755,4.884a.374.374,0,0,1,.637.259h0V32.091a.457.457,0,0,1-.462.452H3.5a1.3,1.3,0,0,0-1.323,1.126h0a1.258,1.258,0,0,0,1.268,1.37H17.89a1.259,1.259,0,0,0,1.268-1.37h0a1.3,1.3,0,0,0-1.323-1.126H12.4a.457.457,0,0,1-.462-.452h0V1.3A1.3,1.3,0,0,0,11.4.231h0A1.292,1.292,0,0,0,10.67,0h-.007Z" transform="translate(0)"/>
        </g>
      </g>
    </g>
  </g>
</svg>
